<mxfile host="app.diagrams.net" modified="2022-11-21T13:52:57.579Z" agent="5.0 (Macintosh; Intel Mac OS X 10_15_7) AppleWebKit/537.36 (KHTML, like Gecko) Chrome/106.0.0.0 Safari/537.36" etag="INicj7shrlbDpnlCQtqw" version="20.5.3" type="github">
  <diagram id="5p-GB2h_ZleM5W-Bud-h" name="Страница 1">
    <mxGraphModel dx="1426" dy="705" grid="1" gridSize="10" guides="1" tooltips="1" connect="1" arrows="1" fold="1" page="1" pageScale="1" pageWidth="827" pageHeight="1169" math="0" shadow="0">
      <root>
        <mxCell id="0" />
        <mxCell id="1" parent="0" />
        <mxCell id="kpOFEtIAuIt60Vqkzhj3-41" value="5-of-90-lottery" style="rounded=1;whiteSpace=wrap;html=1;fontSize=16;" vertex="1" parent="1">
          <mxGeometry x="40" y="40" width="120" height="60" as="geometry" />
        </mxCell>
        <mxCell id="kpOFEtIAuIt60Vqkzhj3-42" value="apps" style="rounded=1;whiteSpace=wrap;html=1;fontSize=16;" vertex="1" parent="1">
          <mxGeometry x="120" y="120" width="120" height="60" as="geometry" />
        </mxCell>
        <mxCell id="kpOFEtIAuIt60Vqkzhj3-43" value="admin-app" style="rounded=1;whiteSpace=wrap;html=1;fontSize=16;" vertex="1" parent="1">
          <mxGeometry x="200" y="700" width="120" height="60" as="geometry" />
        </mxCell>
        <mxCell id="kpOFEtIAuIt60Vqkzhj3-48" value="" style="endArrow=none;html=1;rounded=0;fontSize=16;entryX=0.5;entryY=1;entryDx=0;entryDy=0;" edge="1" parent="1" target="kpOFEtIAuIt60Vqkzhj3-41">
          <mxGeometry width="50" height="50" relative="1" as="geometry">
            <mxPoint x="100" y="150" as="sourcePoint" />
            <mxPoint x="430" y="290" as="targetPoint" />
          </mxGeometry>
        </mxCell>
        <mxCell id="kpOFEtIAuIt60Vqkzhj3-49" value="" style="endArrow=classic;html=1;rounded=0;fontSize=16;entryX=0;entryY=0.5;entryDx=0;entryDy=0;" edge="1" parent="1" target="kpOFEtIAuIt60Vqkzhj3-42">
          <mxGeometry width="50" height="50" relative="1" as="geometry">
            <mxPoint x="100" y="150" as="sourcePoint" />
            <mxPoint x="430" y="290" as="targetPoint" />
          </mxGeometry>
        </mxCell>
        <mxCell id="kpOFEtIAuIt60Vqkzhj3-51" value="platform-app" style="rounded=1;whiteSpace=wrap;html=1;fontSize=16;" vertex="1" parent="1">
          <mxGeometry x="200" y="200" width="120" height="60" as="geometry" />
        </mxCell>
        <mxCell id="kpOFEtIAuIt60Vqkzhj3-52" value="" style="endArrow=none;html=1;rounded=0;fontSize=16;entryX=0.5;entryY=1;entryDx=0;entryDy=0;" edge="1" parent="1" target="kpOFEtIAuIt60Vqkzhj3-42">
          <mxGeometry width="50" height="50" relative="1" as="geometry">
            <mxPoint x="180" y="230" as="sourcePoint" />
            <mxPoint x="110" y="110" as="targetPoint" />
          </mxGeometry>
        </mxCell>
        <mxCell id="kpOFEtIAuIt60Vqkzhj3-53" value="" style="endArrow=classic;html=1;rounded=0;fontSize=16;entryX=0;entryY=0.5;entryDx=0;entryDy=0;" edge="1" parent="1" target="kpOFEtIAuIt60Vqkzhj3-51">
          <mxGeometry width="50" height="50" relative="1" as="geometry">
            <mxPoint x="180" y="230" as="sourcePoint" />
            <mxPoint x="130" y="160" as="targetPoint" />
          </mxGeometry>
        </mxCell>
        <mxCell id="kpOFEtIAuIt60Vqkzhj3-54" value="core" style="rounded=1;whiteSpace=wrap;html=1;fontSize=16;" vertex="1" parent="1">
          <mxGeometry x="280" y="280" width="120" height="60" as="geometry" />
        </mxCell>
        <mxCell id="kpOFEtIAuIt60Vqkzhj3-55" value="features" style="rounded=1;whiteSpace=wrap;html=1;fontSize=16;" vertex="1" parent="1">
          <mxGeometry x="280" y="360" width="120" height="60" as="geometry" />
        </mxCell>
        <mxCell id="kpOFEtIAuIt60Vqkzhj3-56" value="shared" style="rounded=1;whiteSpace=wrap;html=1;fontSize=16;" vertex="1" parent="1">
          <mxGeometry x="280" y="440" width="120" height="60" as="geometry" />
        </mxCell>
        <mxCell id="kpOFEtIAuIt60Vqkzhj3-57" value="" style="endArrow=classic;html=1;rounded=0;fontSize=16;exitX=0.5;exitY=1;exitDx=0;exitDy=0;entryX=0;entryY=0.5;entryDx=0;entryDy=0;" edge="1" parent="1" source="kpOFEtIAuIt60Vqkzhj3-51" target="kpOFEtIAuIt60Vqkzhj3-54">
          <mxGeometry width="50" height="50" relative="1" as="geometry">
            <mxPoint x="380" y="330" as="sourcePoint" />
            <mxPoint x="430" y="280" as="targetPoint" />
            <Array as="points">
              <mxPoint x="260" y="310" />
            </Array>
          </mxGeometry>
        </mxCell>
        <mxCell id="kpOFEtIAuIt60Vqkzhj3-58" value="" style="endArrow=classic;html=1;rounded=0;fontSize=16;entryX=0;entryY=0.5;entryDx=0;entryDy=0;exitX=0.5;exitY=1;exitDx=0;exitDy=0;" edge="1" parent="1" source="kpOFEtIAuIt60Vqkzhj3-51" target="kpOFEtIAuIt60Vqkzhj3-55">
          <mxGeometry width="50" height="50" relative="1" as="geometry">
            <mxPoint x="380" y="330" as="sourcePoint" />
            <mxPoint x="430" y="280" as="targetPoint" />
            <Array as="points">
              <mxPoint x="260" y="390" />
            </Array>
          </mxGeometry>
        </mxCell>
        <mxCell id="kpOFEtIAuIt60Vqkzhj3-59" value="" style="endArrow=classic;html=1;rounded=0;fontSize=16;exitX=0.5;exitY=1;exitDx=0;exitDy=0;entryX=0;entryY=0.5;entryDx=0;entryDy=0;" edge="1" parent="1" source="kpOFEtIAuIt60Vqkzhj3-51" target="kpOFEtIAuIt60Vqkzhj3-56">
          <mxGeometry width="50" height="50" relative="1" as="geometry">
            <mxPoint x="380" y="330" as="sourcePoint" />
            <mxPoint x="430" y="280" as="targetPoint" />
            <Array as="points">
              <mxPoint x="260" y="470" />
            </Array>
          </mxGeometry>
        </mxCell>
        <mxCell id="kpOFEtIAuIt60Vqkzhj3-60" value="print" style="rounded=1;whiteSpace=wrap;html=1;fontSize=16;" vertex="1" parent="1">
          <mxGeometry x="440" y="420" width="120" height="60" as="geometry" />
        </mxCell>
        <mxCell id="kpOFEtIAuIt60Vqkzhj3-61" value="print module" style="rounded=1;whiteSpace=wrap;html=1;fontSize=16;" vertex="1" parent="1">
          <mxGeometry x="440" y="500" width="120" height="60" as="geometry" />
        </mxCell>
        <mxCell id="kpOFEtIAuIt60Vqkzhj3-62" value="" style="endArrow=classic;html=1;rounded=0;fontSize=16;entryX=0.5;entryY=0;entryDx=0;entryDy=0;exitX=1;exitY=0.5;exitDx=0;exitDy=0;" edge="1" parent="1" source="kpOFEtIAuIt60Vqkzhj3-55" target="kpOFEtIAuIt60Vqkzhj3-60">
          <mxGeometry width="50" height="50" relative="1" as="geometry">
            <mxPoint x="380" y="500" as="sourcePoint" />
            <mxPoint x="430" y="450" as="targetPoint" />
            <Array as="points">
              <mxPoint x="500" y="390" />
            </Array>
          </mxGeometry>
        </mxCell>
        <mxCell id="kpOFEtIAuIt60Vqkzhj3-63" value="import print shared module" style="rounded=1;whiteSpace=wrap;html=1;fontSize=16;" vertex="1" parent="1">
          <mxGeometry x="440" y="580" width="120" height="60" as="geometry" />
        </mxCell>
        <mxCell id="kpOFEtIAuIt60Vqkzhj3-64" value="" style="endArrow=classic;html=1;rounded=0;fontSize=16;entryX=0.5;entryY=0;entryDx=0;entryDy=0;exitX=0.5;exitY=1;exitDx=0;exitDy=0;" edge="1" parent="1" source="kpOFEtIAuIt60Vqkzhj3-60" target="kpOFEtIAuIt60Vqkzhj3-61">
          <mxGeometry width="50" height="50" relative="1" as="geometry">
            <mxPoint x="380" y="540" as="sourcePoint" />
            <mxPoint x="430" y="490" as="targetPoint" />
          </mxGeometry>
        </mxCell>
        <mxCell id="kpOFEtIAuIt60Vqkzhj3-65" value="" style="endArrow=classic;html=1;rounded=0;fontSize=16;entryX=0.5;entryY=0;entryDx=0;entryDy=0;exitX=0.5;exitY=1;exitDx=0;exitDy=0;" edge="1" parent="1" source="kpOFEtIAuIt60Vqkzhj3-61" target="kpOFEtIAuIt60Vqkzhj3-63">
          <mxGeometry width="50" height="50" relative="1" as="geometry">
            <mxPoint x="380" y="540" as="sourcePoint" />
            <mxPoint x="430" y="490" as="targetPoint" />
          </mxGeometry>
        </mxCell>
        <mxCell id="kpOFEtIAuIt60Vqkzhj3-66" value="public" style="rounded=1;whiteSpace=wrap;html=1;fontSize=16;" vertex="1" parent="1">
          <mxGeometry x="680" y="420" width="120" height="60" as="geometry" />
        </mxCell>
        <mxCell id="kpOFEtIAuIt60Vqkzhj3-67" value="auth module" style="rounded=1;whiteSpace=wrap;html=1;fontSize=16;" vertex="1" parent="1">
          <mxGeometry x="600" y="500" width="120" height="60" as="geometry" />
        </mxCell>
        <mxCell id="kpOFEtIAuIt60Vqkzhj3-68" value="import auth shared module" style="rounded=1;whiteSpace=wrap;html=1;fontSize=16;" vertex="1" parent="1">
          <mxGeometry x="600" y="580" width="120" height="60" as="geometry" />
        </mxCell>
        <mxCell id="kpOFEtIAuIt60Vqkzhj3-69" value="" style="endArrow=classic;html=1;rounded=0;fontSize=16;entryX=0.5;entryY=0;entryDx=0;entryDy=0;exitX=0;exitY=0.5;exitDx=0;exitDy=0;" edge="1" parent="1" source="kpOFEtIAuIt60Vqkzhj3-66" target="kpOFEtIAuIt60Vqkzhj3-67">
          <mxGeometry width="50" height="50" relative="1" as="geometry">
            <mxPoint x="540" y="540" as="sourcePoint" />
            <mxPoint x="590" y="490" as="targetPoint" />
            <Array as="points">
              <mxPoint x="660" y="450" />
            </Array>
          </mxGeometry>
        </mxCell>
        <mxCell id="kpOFEtIAuIt60Vqkzhj3-70" value="" style="endArrow=classic;html=1;rounded=0;fontSize=16;entryX=0.5;entryY=0;entryDx=0;entryDy=0;exitX=0.5;exitY=1;exitDx=0;exitDy=0;" edge="1" parent="1" source="kpOFEtIAuIt60Vqkzhj3-67" target="kpOFEtIAuIt60Vqkzhj3-68">
          <mxGeometry width="50" height="50" relative="1" as="geometry">
            <mxPoint x="540" y="540" as="sourcePoint" />
            <mxPoint x="590" y="490" as="targetPoint" />
          </mxGeometry>
        </mxCell>
        <mxCell id="kpOFEtIAuIt60Vqkzhj3-71" value="system-error module" style="rounded=1;whiteSpace=wrap;html=1;fontSize=16;" vertex="1" parent="1">
          <mxGeometry x="760" y="500" width="120" height="60" as="geometry" />
        </mxCell>
        <mxCell id="kpOFEtIAuIt60Vqkzhj3-72" value="import system error shared module" style="rounded=1;whiteSpace=wrap;html=1;fontSize=16;" vertex="1" parent="1">
          <mxGeometry x="760" y="580" width="120" height="60" as="geometry" />
        </mxCell>
        <mxCell id="kpOFEtIAuIt60Vqkzhj3-73" value="" style="endArrow=classic;html=1;rounded=0;fontSize=16;entryX=0.5;entryY=0;entryDx=0;entryDy=0;exitX=0.5;exitY=1;exitDx=0;exitDy=0;" edge="1" parent="1" source="kpOFEtIAuIt60Vqkzhj3-71" target="kpOFEtIAuIt60Vqkzhj3-72">
          <mxGeometry width="50" height="50" relative="1" as="geometry">
            <mxPoint x="700" y="540" as="sourcePoint" />
            <mxPoint x="750" y="490" as="targetPoint" />
          </mxGeometry>
        </mxCell>
        <mxCell id="kpOFEtIAuIt60Vqkzhj3-74" value="" style="endArrow=classic;html=1;rounded=0;fontSize=16;entryX=0.5;entryY=0;entryDx=0;entryDy=0;exitX=1;exitY=0.5;exitDx=0;exitDy=0;" edge="1" parent="1" source="kpOFEtIAuIt60Vqkzhj3-55" target="kpOFEtIAuIt60Vqkzhj3-66">
          <mxGeometry width="50" height="50" relative="1" as="geometry">
            <mxPoint x="380" y="480" as="sourcePoint" />
            <mxPoint x="430" y="430" as="targetPoint" />
            <Array as="points">
              <mxPoint x="740" y="390" />
            </Array>
          </mxGeometry>
        </mxCell>
        <mxCell id="kpOFEtIAuIt60Vqkzhj3-75" value="" style="endArrow=classic;html=1;rounded=0;fontSize=16;entryX=0.5;entryY=0;entryDx=0;entryDy=0;exitX=1;exitY=0.5;exitDx=0;exitDy=0;" edge="1" parent="1" source="kpOFEtIAuIt60Vqkzhj3-66" target="kpOFEtIAuIt60Vqkzhj3-71">
          <mxGeometry width="50" height="50" relative="1" as="geometry">
            <mxPoint x="380" y="470" as="sourcePoint" />
            <mxPoint x="430" y="420" as="targetPoint" />
            <Array as="points">
              <mxPoint x="820" y="450" />
            </Array>
          </mxGeometry>
        </mxCell>
        <mxCell id="kpOFEtIAuIt60Vqkzhj3-76" value="secure" style="rounded=1;whiteSpace=wrap;html=1;fontSize=16;" vertex="1" parent="1">
          <mxGeometry x="1480" y="420" width="120" height="60" as="geometry" />
        </mxCell>
        <mxCell id="kpOFEtIAuIt60Vqkzhj3-77" value="events module" style="rounded=1;whiteSpace=wrap;html=1;fontSize=16;" vertex="1" parent="1">
          <mxGeometry x="920" y="500" width="120" height="60" as="geometry" />
        </mxCell>
        <mxCell id="kpOFEtIAuIt60Vqkzhj3-81" value="settle module" style="rounded=1;whiteSpace=wrap;html=1;fontSize=16;" vertex="1" parent="1">
          <mxGeometry x="1080" y="500" width="120" height="60" as="geometry" />
        </mxCell>
        <mxCell id="kpOFEtIAuIt60Vqkzhj3-85" value="bets module" style="rounded=1;whiteSpace=wrap;html=1;fontSize=16;" vertex="1" parent="1">
          <mxGeometry x="1241" y="500" width="120" height="60" as="geometry" />
        </mxCell>
        <mxCell id="kpOFEtIAuIt60Vqkzhj3-86" value="import bets shared module" style="rounded=1;whiteSpace=wrap;html=1;fontSize=16;" vertex="1" parent="1">
          <mxGeometry x="1241" y="580" width="120" height="60" as="geometry" />
        </mxCell>
        <mxCell id="kpOFEtIAuIt60Vqkzhj3-87" value="" style="endArrow=classic;html=1;rounded=0;fontSize=16;entryX=0.5;entryY=0;entryDx=0;entryDy=0;exitX=0.5;exitY=1;exitDx=0;exitDy=0;" edge="1" parent="1" source="kpOFEtIAuIt60Vqkzhj3-85" target="kpOFEtIAuIt60Vqkzhj3-86">
          <mxGeometry width="50" height="50" relative="1" as="geometry">
            <mxPoint x="1181" y="540" as="sourcePoint" />
            <mxPoint x="1231" y="490" as="targetPoint" />
          </mxGeometry>
        </mxCell>
        <mxCell id="kpOFEtIAuIt60Vqkzhj3-88" value="retail verification module" style="rounded=1;whiteSpace=wrap;html=1;fontSize=16;" vertex="1" parent="1">
          <mxGeometry x="1401" y="500" width="120" height="60" as="geometry" />
        </mxCell>
        <mxCell id="kpOFEtIAuIt60Vqkzhj3-89" value="import retail verification shared module" style="rounded=1;whiteSpace=wrap;html=1;fontSize=16;" vertex="1" parent="1">
          <mxGeometry x="1401" y="580" width="120" height="60" as="geometry" />
        </mxCell>
        <mxCell id="kpOFEtIAuIt60Vqkzhj3-90" value="" style="endArrow=classic;html=1;rounded=0;fontSize=16;entryX=0.5;entryY=0;entryDx=0;entryDy=0;exitX=0.5;exitY=1;exitDx=0;exitDy=0;" edge="1" parent="1" source="kpOFEtIAuIt60Vqkzhj3-88" target="kpOFEtIAuIt60Vqkzhj3-89">
          <mxGeometry width="50" height="50" relative="1" as="geometry">
            <mxPoint x="1341" y="540" as="sourcePoint" />
            <mxPoint x="1391" y="490" as="targetPoint" />
          </mxGeometry>
        </mxCell>
        <mxCell id="kpOFEtIAuIt60Vqkzhj3-91" value="retail bets module" style="rounded=1;whiteSpace=wrap;html=1;fontSize=16;" vertex="1" parent="1">
          <mxGeometry x="1560" y="500" width="120" height="60" as="geometry" />
        </mxCell>
        <mxCell id="kpOFEtIAuIt60Vqkzhj3-92" value="import bets shared module" style="rounded=1;whiteSpace=wrap;html=1;fontSize=16;" vertex="1" parent="1">
          <mxGeometry x="1560" y="580" width="120" height="60" as="geometry" />
        </mxCell>
        <mxCell id="kpOFEtIAuIt60Vqkzhj3-93" value="" style="endArrow=classic;html=1;rounded=0;fontSize=16;entryX=0.5;entryY=0;entryDx=0;entryDy=0;exitX=0.5;exitY=1;exitDx=0;exitDy=0;" edge="1" parent="1" source="kpOFEtIAuIt60Vqkzhj3-91" target="kpOFEtIAuIt60Vqkzhj3-92">
          <mxGeometry width="50" height="50" relative="1" as="geometry">
            <mxPoint x="1500" y="540" as="sourcePoint" />
            <mxPoint x="1550" y="490" as="targetPoint" />
          </mxGeometry>
        </mxCell>
        <mxCell id="kpOFEtIAuIt60Vqkzhj3-94" value="retail new bet module" style="rounded=1;whiteSpace=wrap;html=1;fontSize=16;" vertex="1" parent="1">
          <mxGeometry x="1720" y="500" width="120" height="60" as="geometry" />
        </mxCell>
        <mxCell id="kpOFEtIAuIt60Vqkzhj3-95" value="import new bet shared module" style="rounded=1;whiteSpace=wrap;html=1;fontSize=16;" vertex="1" parent="1">
          <mxGeometry x="1720" y="580" width="120" height="60" as="geometry" />
        </mxCell>
        <mxCell id="kpOFEtIAuIt60Vqkzhj3-96" value="" style="endArrow=classic;html=1;rounded=0;fontSize=16;entryX=0.5;entryY=0;entryDx=0;entryDy=0;exitX=0.5;exitY=1;exitDx=0;exitDy=0;" edge="1" parent="1" source="kpOFEtIAuIt60Vqkzhj3-94" target="kpOFEtIAuIt60Vqkzhj3-95">
          <mxGeometry width="50" height="50" relative="1" as="geometry">
            <mxPoint x="1660" y="540" as="sourcePoint" />
            <mxPoint x="1710" y="490" as="targetPoint" />
          </mxGeometry>
        </mxCell>
        <mxCell id="kpOFEtIAuIt60Vqkzhj3-97" value="my bets module" style="rounded=1;whiteSpace=wrap;html=1;fontSize=16;" vertex="1" parent="1">
          <mxGeometry x="1880" y="500" width="120" height="60" as="geometry" />
        </mxCell>
        <mxCell id="kpOFEtIAuIt60Vqkzhj3-98" value="import bets shared module" style="rounded=1;whiteSpace=wrap;html=1;fontSize=16;" vertex="1" parent="1">
          <mxGeometry x="1880" y="580" width="120" height="60" as="geometry" />
        </mxCell>
        <mxCell id="kpOFEtIAuIt60Vqkzhj3-99" value="" style="endArrow=classic;html=1;rounded=0;fontSize=16;entryX=0.5;entryY=0;entryDx=0;entryDy=0;exitX=0.5;exitY=1;exitDx=0;exitDy=0;" edge="1" parent="1" source="kpOFEtIAuIt60Vqkzhj3-97" target="kpOFEtIAuIt60Vqkzhj3-98">
          <mxGeometry width="50" height="50" relative="1" as="geometry">
            <mxPoint x="1820" y="540" as="sourcePoint" />
            <mxPoint x="1870" y="490" as="targetPoint" />
          </mxGeometry>
        </mxCell>
        <mxCell id="kpOFEtIAuIt60Vqkzhj3-100" value="my new bet module" style="rounded=1;whiteSpace=wrap;html=1;fontSize=16;" vertex="1" parent="1">
          <mxGeometry x="2040" y="500" width="120" height="60" as="geometry" />
        </mxCell>
        <mxCell id="kpOFEtIAuIt60Vqkzhj3-101" value="import new bet shared module" style="rounded=1;whiteSpace=wrap;html=1;fontSize=16;" vertex="1" parent="1">
          <mxGeometry x="2040" y="580" width="120" height="60" as="geometry" />
        </mxCell>
        <mxCell id="kpOFEtIAuIt60Vqkzhj3-102" value="" style="endArrow=classic;html=1;rounded=0;fontSize=16;entryX=0.5;entryY=0;entryDx=0;entryDy=0;exitX=0.5;exitY=1;exitDx=0;exitDy=0;" edge="1" parent="1" source="kpOFEtIAuIt60Vqkzhj3-100" target="kpOFEtIAuIt60Vqkzhj3-101">
          <mxGeometry width="50" height="50" relative="1" as="geometry">
            <mxPoint x="1980" y="540" as="sourcePoint" />
            <mxPoint x="2030" y="490" as="targetPoint" />
          </mxGeometry>
        </mxCell>
        <mxCell id="kpOFEtIAuIt60Vqkzhj3-103" value="" style="endArrow=classic;html=1;rounded=0;fontSize=16;exitX=0;exitY=0.5;exitDx=0;exitDy=0;entryX=0.5;entryY=0;entryDx=0;entryDy=0;" edge="1" parent="1" source="kpOFEtIAuIt60Vqkzhj3-76" target="kpOFEtIAuIt60Vqkzhj3-77">
          <mxGeometry width="50" height="50" relative="1" as="geometry">
            <mxPoint x="1480" y="490" as="sourcePoint" />
            <mxPoint x="1530" y="440" as="targetPoint" />
            <Array as="points">
              <mxPoint x="980" y="450" />
            </Array>
          </mxGeometry>
        </mxCell>
        <mxCell id="kpOFEtIAuIt60Vqkzhj3-104" value="" style="endArrow=classic;html=1;rounded=0;fontSize=16;entryX=0.5;entryY=0;entryDx=0;entryDy=0;exitX=0;exitY=0.5;exitDx=0;exitDy=0;" edge="1" parent="1" source="kpOFEtIAuIt60Vqkzhj3-76" target="kpOFEtIAuIt60Vqkzhj3-81">
          <mxGeometry width="50" height="50" relative="1" as="geometry">
            <mxPoint x="1480" y="490" as="sourcePoint" />
            <mxPoint x="1530" y="440" as="targetPoint" />
            <Array as="points">
              <mxPoint x="1140" y="450" />
            </Array>
          </mxGeometry>
        </mxCell>
        <mxCell id="kpOFEtIAuIt60Vqkzhj3-105" value="" style="endArrow=classic;html=1;rounded=0;fontSize=16;entryX=0.5;entryY=0;entryDx=0;entryDy=0;exitX=0;exitY=0.5;exitDx=0;exitDy=0;" edge="1" parent="1" source="kpOFEtIAuIt60Vqkzhj3-76" target="kpOFEtIAuIt60Vqkzhj3-85">
          <mxGeometry width="50" height="50" relative="1" as="geometry">
            <mxPoint x="1480" y="490" as="sourcePoint" />
            <mxPoint x="1530" y="440" as="targetPoint" />
            <Array as="points">
              <mxPoint x="1301" y="450" />
            </Array>
          </mxGeometry>
        </mxCell>
        <mxCell id="kpOFEtIAuIt60Vqkzhj3-106" value="" style="endArrow=classic;html=1;rounded=0;fontSize=16;entryX=0.5;entryY=0;entryDx=0;entryDy=0;exitX=0;exitY=0.5;exitDx=0;exitDy=0;" edge="1" parent="1" source="kpOFEtIAuIt60Vqkzhj3-76" target="kpOFEtIAuIt60Vqkzhj3-88">
          <mxGeometry width="50" height="50" relative="1" as="geometry">
            <mxPoint x="1480" y="490" as="sourcePoint" />
            <mxPoint x="1530" y="440" as="targetPoint" />
            <Array as="points">
              <mxPoint x="1461" y="450" />
            </Array>
          </mxGeometry>
        </mxCell>
        <mxCell id="kpOFEtIAuIt60Vqkzhj3-107" value="" style="endArrow=classic;html=1;rounded=0;fontSize=16;entryX=0.5;entryY=0;entryDx=0;entryDy=0;exitX=1;exitY=0.5;exitDx=0;exitDy=0;" edge="1" parent="1" source="kpOFEtIAuIt60Vqkzhj3-76" target="kpOFEtIAuIt60Vqkzhj3-91">
          <mxGeometry width="50" height="50" relative="1" as="geometry">
            <mxPoint x="1480" y="490" as="sourcePoint" />
            <mxPoint x="1530" y="440" as="targetPoint" />
            <Array as="points">
              <mxPoint x="1620" y="450" />
            </Array>
          </mxGeometry>
        </mxCell>
        <mxCell id="kpOFEtIAuIt60Vqkzhj3-108" value="" style="endArrow=classic;html=1;rounded=0;fontSize=16;entryX=0.5;entryY=0;entryDx=0;entryDy=0;exitX=1;exitY=0.5;exitDx=0;exitDy=0;" edge="1" parent="1" source="kpOFEtIAuIt60Vqkzhj3-76" target="kpOFEtIAuIt60Vqkzhj3-94">
          <mxGeometry width="50" height="50" relative="1" as="geometry">
            <mxPoint x="1480" y="490" as="sourcePoint" />
            <mxPoint x="1530" y="440" as="targetPoint" />
            <Array as="points">
              <mxPoint x="1780" y="450" />
            </Array>
          </mxGeometry>
        </mxCell>
        <mxCell id="kpOFEtIAuIt60Vqkzhj3-109" value="" style="endArrow=classic;html=1;rounded=0;fontSize=16;entryX=0.5;entryY=0;entryDx=0;entryDy=0;exitX=1;exitY=0.5;exitDx=0;exitDy=0;" edge="1" parent="1" source="kpOFEtIAuIt60Vqkzhj3-76" target="kpOFEtIAuIt60Vqkzhj3-97">
          <mxGeometry width="50" height="50" relative="1" as="geometry">
            <mxPoint x="1480" y="490" as="sourcePoint" />
            <mxPoint x="1530" y="440" as="targetPoint" />
            <Array as="points">
              <mxPoint x="1940" y="450" />
            </Array>
          </mxGeometry>
        </mxCell>
        <mxCell id="kpOFEtIAuIt60Vqkzhj3-110" value="" style="endArrow=classic;html=1;rounded=0;fontSize=16;entryX=0.5;entryY=0;entryDx=0;entryDy=0;exitX=1;exitY=0.5;exitDx=0;exitDy=0;" edge="1" parent="1" source="kpOFEtIAuIt60Vqkzhj3-76" target="kpOFEtIAuIt60Vqkzhj3-100">
          <mxGeometry width="50" height="50" relative="1" as="geometry">
            <mxPoint x="1480" y="490" as="sourcePoint" />
            <mxPoint x="1530" y="440" as="targetPoint" />
            <Array as="points">
              <mxPoint x="2100" y="450" />
            </Array>
          </mxGeometry>
        </mxCell>
        <mxCell id="kpOFEtIAuIt60Vqkzhj3-111" value="" style="endArrow=classic;html=1;rounded=0;fontSize=16;entryX=0.5;entryY=0;entryDx=0;entryDy=0;exitX=1;exitY=0.5;exitDx=0;exitDy=0;" edge="1" parent="1" source="kpOFEtIAuIt60Vqkzhj3-55" target="kpOFEtIAuIt60Vqkzhj3-76">
          <mxGeometry width="50" height="50" relative="1" as="geometry">
            <mxPoint x="860" y="400" as="sourcePoint" />
            <mxPoint x="1530" y="440" as="targetPoint" />
            <Array as="points">
              <mxPoint x="1540" y="390" />
            </Array>
          </mxGeometry>
        </mxCell>
        <mxCell id="kpOFEtIAuIt60Vqkzhj3-112" value="" style="endArrow=classic;html=1;rounded=0;fontSize=16;entryX=0;entryY=0.5;entryDx=0;entryDy=0;exitX=0.5;exitY=1;exitDx=0;exitDy=0;" edge="1" parent="1" source="kpOFEtIAuIt60Vqkzhj3-42" target="kpOFEtIAuIt60Vqkzhj3-43">
          <mxGeometry width="50" height="50" relative="1" as="geometry">
            <mxPoint x="170" y="250" as="sourcePoint" />
            <mxPoint x="490" y="540" as="targetPoint" />
            <Array as="points">
              <mxPoint x="180" y="730" />
            </Array>
          </mxGeometry>
        </mxCell>
        <mxCell id="kpOFEtIAuIt60Vqkzhj3-113" value="core" style="rounded=1;whiteSpace=wrap;html=1;fontSize=16;" vertex="1" parent="1">
          <mxGeometry x="280" y="780" width="120" height="60" as="geometry" />
        </mxCell>
        <mxCell id="kpOFEtIAuIt60Vqkzhj3-114" value="features" style="rounded=1;whiteSpace=wrap;html=1;fontSize=16;" vertex="1" parent="1">
          <mxGeometry x="280" y="860" width="120" height="60" as="geometry" />
        </mxCell>
        <mxCell id="kpOFEtIAuIt60Vqkzhj3-115" value="shared" style="rounded=1;whiteSpace=wrap;html=1;fontSize=16;" vertex="1" parent="1">
          <mxGeometry x="280" y="940" width="120" height="60" as="geometry" />
        </mxCell>
        <mxCell id="kpOFEtIAuIt60Vqkzhj3-116" value="secure" style="rounded=1;whiteSpace=wrap;html=1;fontSize=16;" vertex="1" parent="1">
          <mxGeometry x="590" y="920" width="120" height="60" as="geometry" />
        </mxCell>
        <mxCell id="kpOFEtIAuIt60Vqkzhj3-117" value="events module" style="rounded=1;whiteSpace=wrap;html=1;fontSize=16;" vertex="1" parent="1">
          <mxGeometry x="440" y="1000" width="120" height="60" as="geometry" />
        </mxCell>
        <mxCell id="kpOFEtIAuIt60Vqkzhj3-118" value="import bets shared module" style="rounded=1;whiteSpace=wrap;html=1;fontSize=16;" vertex="1" parent="1">
          <mxGeometry x="440" y="1080" width="120" height="60" as="geometry" />
        </mxCell>
        <mxCell id="kpOFEtIAuIt60Vqkzhj3-119" value="" style="endArrow=classic;html=1;rounded=0;fontSize=16;entryX=0.5;entryY=0;entryDx=0;entryDy=0;exitX=0.5;exitY=1;exitDx=0;exitDy=0;" edge="1" parent="1" source="kpOFEtIAuIt60Vqkzhj3-117" target="kpOFEtIAuIt60Vqkzhj3-118">
          <mxGeometry width="50" height="50" relative="1" as="geometry">
            <mxPoint x="380" y="1040" as="sourcePoint" />
            <mxPoint x="430" y="990" as="targetPoint" />
          </mxGeometry>
        </mxCell>
        <mxCell id="kpOFEtIAuIt60Vqkzhj3-120" value="settle module" style="rounded=1;whiteSpace=wrap;html=1;fontSize=16;" vertex="1" parent="1">
          <mxGeometry x="600" y="1000" width="120" height="60" as="geometry" />
        </mxCell>
        <mxCell id="kpOFEtIAuIt60Vqkzhj3-121" value="import settle module" style="rounded=1;whiteSpace=wrap;html=1;fontSize=16;" vertex="1" parent="1">
          <mxGeometry x="600" y="1080" width="120" height="60" as="geometry" />
        </mxCell>
        <mxCell id="kpOFEtIAuIt60Vqkzhj3-122" value="" style="endArrow=classic;html=1;rounded=0;fontSize=16;entryX=0.5;entryY=0;entryDx=0;entryDy=0;exitX=0.5;exitY=1;exitDx=0;exitDy=0;" edge="1" parent="1" source="kpOFEtIAuIt60Vqkzhj3-120" target="kpOFEtIAuIt60Vqkzhj3-121">
          <mxGeometry width="50" height="50" relative="1" as="geometry">
            <mxPoint x="540" y="1040" as="sourcePoint" />
            <mxPoint x="590" y="990" as="targetPoint" />
          </mxGeometry>
        </mxCell>
        <mxCell id="kpOFEtIAuIt60Vqkzhj3-123" value="bets module" style="rounded=1;whiteSpace=wrap;html=1;fontSize=16;" vertex="1" parent="1">
          <mxGeometry x="759" y="1000" width="120" height="60" as="geometry" />
        </mxCell>
        <mxCell id="kpOFEtIAuIt60Vqkzhj3-124" value="import bets shared module" style="rounded=1;whiteSpace=wrap;html=1;fontSize=16;" vertex="1" parent="1">
          <mxGeometry x="759" y="1080" width="120" height="60" as="geometry" />
        </mxCell>
        <mxCell id="kpOFEtIAuIt60Vqkzhj3-125" value="" style="endArrow=classic;html=1;rounded=0;fontSize=16;entryX=0.5;entryY=0;entryDx=0;entryDy=0;exitX=0.5;exitY=1;exitDx=0;exitDy=0;" edge="1" parent="1" source="kpOFEtIAuIt60Vqkzhj3-123" target="kpOFEtIAuIt60Vqkzhj3-124">
          <mxGeometry width="50" height="50" relative="1" as="geometry">
            <mxPoint x="699" y="1040" as="sourcePoint" />
            <mxPoint x="749" y="990" as="targetPoint" />
          </mxGeometry>
        </mxCell>
        <mxCell id="kpOFEtIAuIt60Vqkzhj3-126" value="" style="endArrow=classic;html=1;rounded=0;fontSize=16;entryX=0.5;entryY=0;entryDx=0;entryDy=0;exitX=0;exitY=0.5;exitDx=0;exitDy=0;" edge="1" parent="1" source="kpOFEtIAuIt60Vqkzhj3-116" target="kpOFEtIAuIt60Vqkzhj3-117">
          <mxGeometry width="50" height="50" relative="1" as="geometry">
            <mxPoint x="679" y="990" as="sourcePoint" />
            <mxPoint x="729" y="940" as="targetPoint" />
            <Array as="points">
              <mxPoint x="500" y="950" />
            </Array>
          </mxGeometry>
        </mxCell>
        <mxCell id="kpOFEtIAuIt60Vqkzhj3-127" value="" style="endArrow=classic;html=1;rounded=0;fontSize=16;entryX=0.5;entryY=0;entryDx=0;entryDy=0;" edge="1" parent="1" target="kpOFEtIAuIt60Vqkzhj3-120">
          <mxGeometry width="50" height="50" relative="1" as="geometry">
            <mxPoint x="660" y="980" as="sourcePoint" />
            <mxPoint x="729" y="940" as="targetPoint" />
            <Array as="points">
              <mxPoint x="660" y="980" />
            </Array>
          </mxGeometry>
        </mxCell>
        <mxCell id="kpOFEtIAuIt60Vqkzhj3-128" value="" style="endArrow=classic;html=1;rounded=0;fontSize=16;entryX=0.5;entryY=0;entryDx=0;entryDy=0;exitX=1;exitY=0.5;exitDx=0;exitDy=0;" edge="1" parent="1" source="kpOFEtIAuIt60Vqkzhj3-116" target="kpOFEtIAuIt60Vqkzhj3-123">
          <mxGeometry width="50" height="50" relative="1" as="geometry">
            <mxPoint x="679" y="990" as="sourcePoint" />
            <mxPoint x="729" y="940" as="targetPoint" />
            <Array as="points">
              <mxPoint x="819" y="950" />
            </Array>
          </mxGeometry>
        </mxCell>
        <mxCell id="kpOFEtIAuIt60Vqkzhj3-129" value="import events shared module" style="rounded=1;whiteSpace=wrap;html=1;fontSize=16;" vertex="1" parent="1">
          <mxGeometry x="920" y="585" width="120" height="60" as="geometry" />
        </mxCell>
        <mxCell id="kpOFEtIAuIt60Vqkzhj3-130" value="import settle shared module" style="rounded=1;whiteSpace=wrap;html=1;fontSize=16;" vertex="1" parent="1">
          <mxGeometry x="1080" y="585" width="120" height="60" as="geometry" />
        </mxCell>
        <mxCell id="kpOFEtIAuIt60Vqkzhj3-132" value="" style="endArrow=classic;html=1;rounded=0;fontSize=16;entryX=0.5;entryY=0;entryDx=0;entryDy=0;exitX=0.5;exitY=1;exitDx=0;exitDy=0;" edge="1" parent="1" source="kpOFEtIAuIt60Vqkzhj3-77" target="kpOFEtIAuIt60Vqkzhj3-129">
          <mxGeometry width="50" height="50" relative="1" as="geometry">
            <mxPoint x="800" y="800" as="sourcePoint" />
            <mxPoint x="850" y="750" as="targetPoint" />
          </mxGeometry>
        </mxCell>
        <mxCell id="kpOFEtIAuIt60Vqkzhj3-133" value="" style="endArrow=classic;html=1;rounded=0;fontSize=16;entryX=0.5;entryY=0;entryDx=0;entryDy=0;exitX=0.5;exitY=1;exitDx=0;exitDy=0;" edge="1" parent="1" source="kpOFEtIAuIt60Vqkzhj3-81" target="kpOFEtIAuIt60Vqkzhj3-130">
          <mxGeometry width="50" height="50" relative="1" as="geometry">
            <mxPoint x="800" y="800" as="sourcePoint" />
            <mxPoint x="850" y="750" as="targetPoint" />
          </mxGeometry>
        </mxCell>
        <mxCell id="kpOFEtIAuIt60Vqkzhj3-134" value="" style="endArrow=classic;html=1;rounded=0;fontSize=16;entryX=0.5;entryY=0;entryDx=0;entryDy=0;exitX=1;exitY=0.5;exitDx=0;exitDy=0;" edge="1" parent="1" source="kpOFEtIAuIt60Vqkzhj3-114" target="kpOFEtIAuIt60Vqkzhj3-116">
          <mxGeometry width="50" height="50" relative="1" as="geometry">
            <mxPoint x="800" y="970" as="sourcePoint" />
            <mxPoint x="850" y="920" as="targetPoint" />
            <Array as="points">
              <mxPoint x="650" y="890" />
            </Array>
          </mxGeometry>
        </mxCell>
        <mxCell id="kpOFEtIAuIt60Vqkzhj3-135" value="" style="endArrow=classic;html=1;rounded=0;fontSize=16;entryX=0;entryY=0.5;entryDx=0;entryDy=0;exitX=0.5;exitY=1;exitDx=0;exitDy=0;" edge="1" parent="1" source="kpOFEtIAuIt60Vqkzhj3-43" target="kpOFEtIAuIt60Vqkzhj3-113">
          <mxGeometry width="50" height="50" relative="1" as="geometry">
            <mxPoint x="800" y="970" as="sourcePoint" />
            <mxPoint x="850" y="920" as="targetPoint" />
            <Array as="points">
              <mxPoint x="260" y="810" />
            </Array>
          </mxGeometry>
        </mxCell>
        <mxCell id="kpOFEtIAuIt60Vqkzhj3-136" value="" style="endArrow=classic;html=1;rounded=0;fontSize=16;entryX=0;entryY=0.5;entryDx=0;entryDy=0;exitX=0.5;exitY=1;exitDx=0;exitDy=0;" edge="1" parent="1" source="kpOFEtIAuIt60Vqkzhj3-43" target="kpOFEtIAuIt60Vqkzhj3-114">
          <mxGeometry width="50" height="50" relative="1" as="geometry">
            <mxPoint x="800" y="970" as="sourcePoint" />
            <mxPoint x="850" y="920" as="targetPoint" />
            <Array as="points">
              <mxPoint x="260" y="890" />
            </Array>
          </mxGeometry>
        </mxCell>
        <mxCell id="kpOFEtIAuIt60Vqkzhj3-137" value="" style="endArrow=classic;html=1;rounded=0;fontSize=16;entryX=0;entryY=0.5;entryDx=0;entryDy=0;exitX=0.5;exitY=1;exitDx=0;exitDy=0;" edge="1" parent="1" source="kpOFEtIAuIt60Vqkzhj3-43" target="kpOFEtIAuIt60Vqkzhj3-115">
          <mxGeometry width="50" height="50" relative="1" as="geometry">
            <mxPoint x="800" y="970" as="sourcePoint" />
            <mxPoint x="850" y="920" as="targetPoint" />
            <Array as="points">
              <mxPoint x="260" y="970" />
            </Array>
          </mxGeometry>
        </mxCell>
        <mxCell id="kpOFEtIAuIt60Vqkzhj3-138" value="player-app" style="rounded=1;whiteSpace=wrap;html=1;fontSize=16;" vertex="1" parent="1">
          <mxGeometry x="200" y="1160" width="120" height="60" as="geometry" />
        </mxCell>
        <mxCell id="kpOFEtIAuIt60Vqkzhj3-139" value="core" style="rounded=1;whiteSpace=wrap;html=1;fontSize=16;" vertex="1" parent="1">
          <mxGeometry x="280" y="1240" width="120" height="60" as="geometry" />
        </mxCell>
        <mxCell id="kpOFEtIAuIt60Vqkzhj3-140" value="features" style="rounded=1;whiteSpace=wrap;html=1;fontSize=16;" vertex="1" parent="1">
          <mxGeometry x="280" y="1320" width="120" height="60" as="geometry" />
        </mxCell>
        <mxCell id="kpOFEtIAuIt60Vqkzhj3-141" value="shared" style="rounded=1;whiteSpace=wrap;html=1;fontSize=16;" vertex="1" parent="1">
          <mxGeometry x="280" y="1400" width="120" height="60" as="geometry" />
        </mxCell>
        <mxCell id="kpOFEtIAuIt60Vqkzhj3-142" value="secure" style="rounded=1;whiteSpace=wrap;html=1;fontSize=16;" vertex="1" parent="1">
          <mxGeometry x="520" y="1380" width="120" height="60" as="geometry" />
        </mxCell>
        <mxCell id="kpOFEtIAuIt60Vqkzhj3-143" value="bets module" style="rounded=1;whiteSpace=wrap;html=1;fontSize=16;" vertex="1" parent="1">
          <mxGeometry x="440" y="1471" width="120" height="60" as="geometry" />
        </mxCell>
        <mxCell id="kpOFEtIAuIt60Vqkzhj3-144" value="import bets shared module" style="rounded=1;whiteSpace=wrap;html=1;fontSize=16;" vertex="1" parent="1">
          <mxGeometry x="440" y="1551" width="120" height="60" as="geometry" />
        </mxCell>
        <mxCell id="kpOFEtIAuIt60Vqkzhj3-145" value="" style="endArrow=classic;html=1;rounded=0;fontSize=16;entryX=0.5;entryY=0;entryDx=0;entryDy=0;exitX=0.5;exitY=1;exitDx=0;exitDy=0;" edge="1" parent="1" source="kpOFEtIAuIt60Vqkzhj3-143" target="kpOFEtIAuIt60Vqkzhj3-144">
          <mxGeometry width="50" height="50" relative="1" as="geometry">
            <mxPoint x="380" y="1511" as="sourcePoint" />
            <mxPoint x="430" y="1461" as="targetPoint" />
          </mxGeometry>
        </mxCell>
        <mxCell id="kpOFEtIAuIt60Vqkzhj3-149" value="new bet module" style="rounded=1;whiteSpace=wrap;html=1;fontSize=16;" vertex="1" parent="1">
          <mxGeometry x="600" y="1471" width="120" height="60" as="geometry" />
        </mxCell>
        <mxCell id="kpOFEtIAuIt60Vqkzhj3-150" value="import new bet shared module" style="rounded=1;whiteSpace=wrap;html=1;fontSize=16;" vertex="1" parent="1">
          <mxGeometry x="600" y="1551" width="120" height="60" as="geometry" />
        </mxCell>
        <mxCell id="kpOFEtIAuIt60Vqkzhj3-151" value="" style="endArrow=classic;html=1;rounded=0;fontSize=16;entryX=0.5;entryY=0;entryDx=0;entryDy=0;exitX=0.5;exitY=1;exitDx=0;exitDy=0;" edge="1" parent="1" source="kpOFEtIAuIt60Vqkzhj3-149" target="kpOFEtIAuIt60Vqkzhj3-150">
          <mxGeometry width="50" height="50" relative="1" as="geometry">
            <mxPoint x="540" y="1511" as="sourcePoint" />
            <mxPoint x="590" y="1461" as="targetPoint" />
          </mxGeometry>
        </mxCell>
        <mxCell id="kpOFEtIAuIt60Vqkzhj3-152" value="" style="endArrow=classic;html=1;rounded=0;fontSize=16;entryX=0.5;entryY=0;entryDx=0;entryDy=0;exitX=0;exitY=0.5;exitDx=0;exitDy=0;" edge="1" parent="1" source="kpOFEtIAuIt60Vqkzhj3-142" target="kpOFEtIAuIt60Vqkzhj3-143">
          <mxGeometry width="50" height="50" relative="1" as="geometry">
            <mxPoint x="599" y="1450" as="sourcePoint" />
            <mxPoint x="649" y="1400" as="targetPoint" />
            <Array as="points">
              <mxPoint x="500" y="1410" />
            </Array>
          </mxGeometry>
        </mxCell>
        <mxCell id="kpOFEtIAuIt60Vqkzhj3-154" value="" style="endArrow=classic;html=1;rounded=0;fontSize=16;entryX=0.5;entryY=0;entryDx=0;entryDy=0;exitX=1;exitY=0.5;exitDx=0;exitDy=0;" edge="1" parent="1" source="kpOFEtIAuIt60Vqkzhj3-142" target="kpOFEtIAuIt60Vqkzhj3-149">
          <mxGeometry width="50" height="50" relative="1" as="geometry">
            <mxPoint x="599" y="1450" as="sourcePoint" />
            <mxPoint x="649" y="1400" as="targetPoint" />
            <Array as="points">
              <mxPoint x="660" y="1410" />
            </Array>
          </mxGeometry>
        </mxCell>
        <mxCell id="kpOFEtIAuIt60Vqkzhj3-155" value="" style="endArrow=classic;html=1;rounded=0;fontSize=16;entryX=0.5;entryY=0;entryDx=0;entryDy=0;exitX=1;exitY=0.5;exitDx=0;exitDy=0;" edge="1" parent="1" source="kpOFEtIAuIt60Vqkzhj3-140" target="kpOFEtIAuIt60Vqkzhj3-142">
          <mxGeometry width="50" height="50" relative="1" as="geometry">
            <mxPoint x="800" y="1430" as="sourcePoint" />
            <mxPoint x="850" y="1380" as="targetPoint" />
            <Array as="points">
              <mxPoint x="580" y="1350" />
            </Array>
          </mxGeometry>
        </mxCell>
        <mxCell id="kpOFEtIAuIt60Vqkzhj3-156" value="" style="endArrow=classic;html=1;rounded=0;fontSize=16;entryX=0;entryY=0.5;entryDx=0;entryDy=0;exitX=0.5;exitY=1;exitDx=0;exitDy=0;" edge="1" parent="1" source="kpOFEtIAuIt60Vqkzhj3-138" target="kpOFEtIAuIt60Vqkzhj3-139">
          <mxGeometry width="50" height="50" relative="1" as="geometry">
            <mxPoint x="800" y="1430" as="sourcePoint" />
            <mxPoint x="850" y="1380" as="targetPoint" />
            <Array as="points">
              <mxPoint x="260" y="1270" />
            </Array>
          </mxGeometry>
        </mxCell>
        <mxCell id="kpOFEtIAuIt60Vqkzhj3-157" value="" style="endArrow=classic;html=1;rounded=0;fontSize=16;entryX=0;entryY=0.5;entryDx=0;entryDy=0;exitX=0.5;exitY=1;exitDx=0;exitDy=0;" edge="1" parent="1" source="kpOFEtIAuIt60Vqkzhj3-138" target="kpOFEtIAuIt60Vqkzhj3-140">
          <mxGeometry width="50" height="50" relative="1" as="geometry">
            <mxPoint x="800" y="1430" as="sourcePoint" />
            <mxPoint x="850" y="1380" as="targetPoint" />
            <Array as="points">
              <mxPoint x="260" y="1350" />
            </Array>
          </mxGeometry>
        </mxCell>
        <mxCell id="kpOFEtIAuIt60Vqkzhj3-158" value="" style="endArrow=classic;html=1;rounded=0;fontSize=16;entryX=0;entryY=0.5;entryDx=0;entryDy=0;exitX=0.5;exitY=1;exitDx=0;exitDy=0;" edge="1" parent="1" source="kpOFEtIAuIt60Vqkzhj3-138" target="kpOFEtIAuIt60Vqkzhj3-141">
          <mxGeometry width="50" height="50" relative="1" as="geometry">
            <mxPoint x="800" y="1430" as="sourcePoint" />
            <mxPoint x="850" y="1380" as="targetPoint" />
            <Array as="points">
              <mxPoint x="260" y="1430" />
            </Array>
          </mxGeometry>
        </mxCell>
        <mxCell id="kpOFEtIAuIt60Vqkzhj3-159" value="" style="endArrow=classic;html=1;rounded=0;fontSize=16;entryX=0;entryY=0.5;entryDx=0;entryDy=0;exitX=0.5;exitY=1;exitDx=0;exitDy=0;" edge="1" parent="1" source="kpOFEtIAuIt60Vqkzhj3-42" target="kpOFEtIAuIt60Vqkzhj3-138">
          <mxGeometry width="50" height="50" relative="1" as="geometry">
            <mxPoint x="480" y="930" as="sourcePoint" />
            <mxPoint x="530" y="880" as="targetPoint" />
            <Array as="points">
              <mxPoint x="180" y="1190" />
            </Array>
          </mxGeometry>
        </mxCell>
        <mxCell id="kpOFEtIAuIt60Vqkzhj3-160" value="cashier-app" style="rounded=1;whiteSpace=wrap;html=1;fontSize=16;" vertex="1" parent="1">
          <mxGeometry x="200" y="1680" width="120" height="60" as="geometry" />
        </mxCell>
        <mxCell id="kpOFEtIAuIt60Vqkzhj3-161" value="core" style="rounded=1;whiteSpace=wrap;html=1;fontSize=16;" vertex="1" parent="1">
          <mxGeometry x="280" y="1760" width="120" height="60" as="geometry" />
        </mxCell>
        <mxCell id="kpOFEtIAuIt60Vqkzhj3-162" value="features" style="rounded=1;whiteSpace=wrap;html=1;fontSize=16;" vertex="1" parent="1">
          <mxGeometry x="280" y="1840" width="120" height="60" as="geometry" />
        </mxCell>
        <mxCell id="kpOFEtIAuIt60Vqkzhj3-163" value="shared" style="rounded=1;whiteSpace=wrap;html=1;fontSize=16;" vertex="1" parent="1">
          <mxGeometry x="280" y="1920" width="120" height="60" as="geometry" />
        </mxCell>
        <mxCell id="kpOFEtIAuIt60Vqkzhj3-164" value="secure" style="rounded=1;whiteSpace=wrap;html=1;fontSize=16;" vertex="1" parent="1">
          <mxGeometry x="600" y="1900" width="120" height="60" as="geometry" />
        </mxCell>
        <mxCell id="kpOFEtIAuIt60Vqkzhj3-173" value="" style="endArrow=classic;html=1;rounded=0;fontSize=16;entryX=0.5;entryY=0;entryDx=0;entryDy=0;exitX=1;exitY=0.5;exitDx=0;exitDy=0;" edge="1" parent="1" source="kpOFEtIAuIt60Vqkzhj3-162" target="kpOFEtIAuIt60Vqkzhj3-164">
          <mxGeometry width="50" height="50" relative="1" as="geometry">
            <mxPoint x="800" y="1950" as="sourcePoint" />
            <mxPoint x="850" y="1900" as="targetPoint" />
            <Array as="points">
              <mxPoint x="660" y="1870" />
            </Array>
          </mxGeometry>
        </mxCell>
        <mxCell id="kpOFEtIAuIt60Vqkzhj3-174" value="" style="endArrow=classic;html=1;rounded=0;fontSize=16;entryX=0;entryY=0.5;entryDx=0;entryDy=0;exitX=0.5;exitY=1;exitDx=0;exitDy=0;" edge="1" parent="1" source="kpOFEtIAuIt60Vqkzhj3-160" target="kpOFEtIAuIt60Vqkzhj3-161">
          <mxGeometry width="50" height="50" relative="1" as="geometry">
            <mxPoint x="800" y="1950" as="sourcePoint" />
            <mxPoint x="850" y="1900" as="targetPoint" />
            <Array as="points">
              <mxPoint x="260" y="1790" />
            </Array>
          </mxGeometry>
        </mxCell>
        <mxCell id="kpOFEtIAuIt60Vqkzhj3-175" value="" style="endArrow=classic;html=1;rounded=0;fontSize=16;entryX=0;entryY=0.5;entryDx=0;entryDy=0;exitX=0.5;exitY=1;exitDx=0;exitDy=0;" edge="1" parent="1" source="kpOFEtIAuIt60Vqkzhj3-160" target="kpOFEtIAuIt60Vqkzhj3-162">
          <mxGeometry width="50" height="50" relative="1" as="geometry">
            <mxPoint x="800" y="1950" as="sourcePoint" />
            <mxPoint x="850" y="1900" as="targetPoint" />
            <Array as="points">
              <mxPoint x="260" y="1870" />
            </Array>
          </mxGeometry>
        </mxCell>
        <mxCell id="kpOFEtIAuIt60Vqkzhj3-176" value="" style="endArrow=classic;html=1;rounded=0;fontSize=16;entryX=0;entryY=0.5;entryDx=0;entryDy=0;exitX=0.5;exitY=1;exitDx=0;exitDy=0;" edge="1" parent="1" source="kpOFEtIAuIt60Vqkzhj3-160" target="kpOFEtIAuIt60Vqkzhj3-163">
          <mxGeometry width="50" height="50" relative="1" as="geometry">
            <mxPoint x="800" y="1950" as="sourcePoint" />
            <mxPoint x="850" y="1900" as="targetPoint" />
            <Array as="points">
              <mxPoint x="260" y="1950" />
            </Array>
          </mxGeometry>
        </mxCell>
        <mxCell id="kpOFEtIAuIt60Vqkzhj3-177" value="retail verification module" style="rounded=1;whiteSpace=wrap;html=1;fontSize=16;" vertex="1" parent="1">
          <mxGeometry x="440" y="2000" width="120" height="60" as="geometry" />
        </mxCell>
        <mxCell id="kpOFEtIAuIt60Vqkzhj3-178" value="import retail verification shared module" style="rounded=1;whiteSpace=wrap;html=1;fontSize=16;" vertex="1" parent="1">
          <mxGeometry x="440" y="2080" width="120" height="60" as="geometry" />
        </mxCell>
        <mxCell id="kpOFEtIAuIt60Vqkzhj3-179" value="" style="endArrow=classic;html=1;rounded=0;fontSize=16;entryX=0.5;entryY=0;entryDx=0;entryDy=0;exitX=0.5;exitY=1;exitDx=0;exitDy=0;" edge="1" parent="1" source="kpOFEtIAuIt60Vqkzhj3-177" target="kpOFEtIAuIt60Vqkzhj3-178">
          <mxGeometry width="50" height="50" relative="1" as="geometry">
            <mxPoint x="380" y="2040" as="sourcePoint" />
            <mxPoint x="430" y="1990" as="targetPoint" />
          </mxGeometry>
        </mxCell>
        <mxCell id="kpOFEtIAuIt60Vqkzhj3-180" value="retail bets module" style="rounded=1;whiteSpace=wrap;html=1;fontSize=16;" vertex="1" parent="1">
          <mxGeometry x="599" y="2000" width="120" height="60" as="geometry" />
        </mxCell>
        <mxCell id="kpOFEtIAuIt60Vqkzhj3-181" value="import bets shared module" style="rounded=1;whiteSpace=wrap;html=1;fontSize=16;" vertex="1" parent="1">
          <mxGeometry x="599" y="2080" width="120" height="60" as="geometry" />
        </mxCell>
        <mxCell id="kpOFEtIAuIt60Vqkzhj3-182" value="" style="endArrow=classic;html=1;rounded=0;fontSize=16;entryX=0.5;entryY=0;entryDx=0;entryDy=0;exitX=0.5;exitY=1;exitDx=0;exitDy=0;" edge="1" parent="1" source="kpOFEtIAuIt60Vqkzhj3-180" target="kpOFEtIAuIt60Vqkzhj3-181">
          <mxGeometry width="50" height="50" relative="1" as="geometry">
            <mxPoint x="539" y="2040" as="sourcePoint" />
            <mxPoint x="589" y="1990" as="targetPoint" />
          </mxGeometry>
        </mxCell>
        <mxCell id="kpOFEtIAuIt60Vqkzhj3-183" value="retail new bet module" style="rounded=1;whiteSpace=wrap;html=1;fontSize=16;" vertex="1" parent="1">
          <mxGeometry x="759" y="2000" width="120" height="60" as="geometry" />
        </mxCell>
        <mxCell id="kpOFEtIAuIt60Vqkzhj3-184" value="import new bet shared module" style="rounded=1;whiteSpace=wrap;html=1;fontSize=16;" vertex="1" parent="1">
          <mxGeometry x="759" y="2080" width="120" height="60" as="geometry" />
        </mxCell>
        <mxCell id="kpOFEtIAuIt60Vqkzhj3-185" value="" style="endArrow=classic;html=1;rounded=0;fontSize=16;entryX=0.5;entryY=0;entryDx=0;entryDy=0;exitX=0.5;exitY=1;exitDx=0;exitDy=0;" edge="1" parent="1" source="kpOFEtIAuIt60Vqkzhj3-183" target="kpOFEtIAuIt60Vqkzhj3-184">
          <mxGeometry width="50" height="50" relative="1" as="geometry">
            <mxPoint x="699" y="2040" as="sourcePoint" />
            <mxPoint x="749" y="1990" as="targetPoint" />
          </mxGeometry>
        </mxCell>
        <mxCell id="kpOFEtIAuIt60Vqkzhj3-186" value="" style="endArrow=classic;html=1;rounded=0;fontSize=16;entryX=0.5;entryY=0;entryDx=0;entryDy=0;" edge="1" parent="1" target="kpOFEtIAuIt60Vqkzhj3-180">
          <mxGeometry width="50" height="50" relative="1" as="geometry">
            <mxPoint x="660" y="1960" as="sourcePoint" />
            <mxPoint x="580" y="1940" as="targetPoint" />
          </mxGeometry>
        </mxCell>
        <mxCell id="kpOFEtIAuIt60Vqkzhj3-187" value="" style="endArrow=classic;html=1;rounded=0;fontSize=16;entryX=0.5;entryY=0;entryDx=0;entryDy=0;exitX=1;exitY=0.5;exitDx=0;exitDy=0;" edge="1" parent="1" source="kpOFEtIAuIt60Vqkzhj3-164" target="kpOFEtIAuIt60Vqkzhj3-183">
          <mxGeometry width="50" height="50" relative="1" as="geometry">
            <mxPoint x="530" y="1990" as="sourcePoint" />
            <mxPoint x="580" y="1940" as="targetPoint" />
            <Array as="points">
              <mxPoint x="820" y="1930" />
            </Array>
          </mxGeometry>
        </mxCell>
        <mxCell id="kpOFEtIAuIt60Vqkzhj3-188" value="" style="endArrow=classic;html=1;rounded=0;fontSize=16;entryX=0.5;entryY=0;entryDx=0;entryDy=0;exitX=0;exitY=0.5;exitDx=0;exitDy=0;" edge="1" parent="1" source="kpOFEtIAuIt60Vqkzhj3-164" target="kpOFEtIAuIt60Vqkzhj3-177">
          <mxGeometry width="50" height="50" relative="1" as="geometry">
            <mxPoint x="530" y="1990" as="sourcePoint" />
            <mxPoint x="580" y="1940" as="targetPoint" />
            <Array as="points">
              <mxPoint x="500" y="1930" />
            </Array>
          </mxGeometry>
        </mxCell>
        <mxCell id="kpOFEtIAuIt60Vqkzhj3-189" value="" style="endArrow=classic;html=1;rounded=0;fontSize=16;entryX=0;entryY=0.5;entryDx=0;entryDy=0;exitX=0.5;exitY=1;exitDx=0;exitDy=0;" edge="1" parent="1" source="kpOFEtIAuIt60Vqkzhj3-42" target="kpOFEtIAuIt60Vqkzhj3-160">
          <mxGeometry width="50" height="50" relative="1" as="geometry">
            <mxPoint x="530" y="1610" as="sourcePoint" />
            <mxPoint x="580" y="1560" as="targetPoint" />
            <Array as="points">
              <mxPoint x="180" y="1710" />
            </Array>
          </mxGeometry>
        </mxCell>
        <mxCell id="kpOFEtIAuIt60Vqkzhj3-190" value="libs" style="rounded=1;whiteSpace=wrap;html=1;fontSize=16;" vertex="1" parent="1">
          <mxGeometry x="120" y="2200" width="120" height="60" as="geometry" />
        </mxCell>
        <mxCell id="kpOFEtIAuIt60Vqkzhj3-191" value="" style="endArrow=classic;html=1;rounded=0;fontSize=16;entryX=0;entryY=0.5;entryDx=0;entryDy=0;exitX=0.5;exitY=1;exitDx=0;exitDy=0;" edge="1" parent="1" source="kpOFEtIAuIt60Vqkzhj3-41" target="kpOFEtIAuIt60Vqkzhj3-190">
          <mxGeometry width="50" height="50" relative="1" as="geometry">
            <mxPoint x="530" y="2060" as="sourcePoint" />
            <mxPoint x="580" y="2010" as="targetPoint" />
            <Array as="points">
              <mxPoint x="100" y="2230" />
            </Array>
          </mxGeometry>
        </mxCell>
        <mxCell id="kpOFEtIAuIt60Vqkzhj3-192" value="ui" style="rounded=1;whiteSpace=wrap;html=1;fontSize=16;" vertex="1" parent="1">
          <mxGeometry x="200" y="2280" width="120" height="60" as="geometry" />
        </mxCell>
        <mxCell id="kpOFEtIAuIt60Vqkzhj3-193" value="data-access" style="rounded=1;whiteSpace=wrap;html=1;fontSize=16;" vertex="1" parent="1">
          <mxGeometry x="200" y="2360" width="120" height="60" as="geometry" />
        </mxCell>
        <mxCell id="kpOFEtIAuIt60Vqkzhj3-194" value="print" style="rounded=1;whiteSpace=wrap;html=1;fontSize=16;" vertex="1" parent="1">
          <mxGeometry x="200" y="2440" width="120" height="60" as="geometry" />
        </mxCell>
        <mxCell id="kpOFEtIAuIt60Vqkzhj3-195" value="bets" style="rounded=1;whiteSpace=wrap;html=1;fontSize=16;" vertex="1" parent="1">
          <mxGeometry x="200" y="2520" width="120" height="60" as="geometry" />
        </mxCell>
        <mxCell id="kpOFEtIAuIt60Vqkzhj3-196" value="events" style="rounded=1;whiteSpace=wrap;html=1;fontSize=16;" vertex="1" parent="1">
          <mxGeometry x="200" y="2600" width="120" height="60" as="geometry" />
        </mxCell>
        <mxCell id="kpOFEtIAuIt60Vqkzhj3-197" value="settle" style="rounded=1;whiteSpace=wrap;html=1;fontSize=16;" vertex="1" parent="1">
          <mxGeometry x="200" y="2680" width="120" height="60" as="geometry" />
        </mxCell>
        <mxCell id="kpOFEtIAuIt60Vqkzhj3-198" value="auth&lt;span style=&quot;color: rgba(0, 0, 0, 0); font-family: monospace; font-size: 0px; text-align: start;&quot;&gt;%3CmxGraphModel%3E%3Croot%3E%3CmxCell%20id%3D%220%22%2F%3E%3CmxCell%20id%3D%221%22%20parent%3D%220%22%2F%3E%3CmxCell%20id%3D%222%22%20value%3D%22settle%22%20style%3D%22rounded%3D1%3BwhiteSpace%3Dwrap%3Bhtml%3D1%3BfontSize%3D16%3B%22%20vertex%3D%221%22%20parent%3D%221%22%3E%3CmxGeometry%20x%3D%22200%22%20y%3D%222680%22%20width%3D%22120%22%20height%3D%2260%22%20as%3D%22geometry%22%2F%3E%3C%2FmxCell%3E%3C%2Froot%3E%3C%2FmxGraphModel%3E&lt;/span&gt;" style="rounded=1;whiteSpace=wrap;html=1;fontSize=16;" vertex="1" parent="1">
          <mxGeometry x="200" y="2760" width="120" height="60" as="geometry" />
        </mxCell>
        <mxCell id="kpOFEtIAuIt60Vqkzhj3-199" value="system-errors" style="rounded=1;whiteSpace=wrap;html=1;fontSize=16;" vertex="1" parent="1">
          <mxGeometry x="200" y="2840" width="120" height="60" as="geometry" />
        </mxCell>
        <mxCell id="kpOFEtIAuIt60Vqkzhj3-200" value="verification&amp;nbsp;" style="rounded=1;whiteSpace=wrap;html=1;fontSize=16;" vertex="1" parent="1">
          <mxGeometry x="200" y="2923" width="120" height="60" as="geometry" />
        </mxCell>
        <mxCell id="kpOFEtIAuIt60Vqkzhj3-201" value="new bet" style="rounded=1;whiteSpace=wrap;html=1;fontSize=16;" vertex="1" parent="1">
          <mxGeometry x="200" y="3000" width="120" height="60" as="geometry" />
        </mxCell>
        <mxCell id="kpOFEtIAuIt60Vqkzhj3-202" value="" style="endArrow=classic;html=1;rounded=0;fontSize=16;entryX=0;entryY=0.5;entryDx=0;entryDy=0;exitX=0.5;exitY=1;exitDx=0;exitDy=0;" edge="1" parent="1" source="kpOFEtIAuIt60Vqkzhj3-190" target="kpOFEtIAuIt60Vqkzhj3-192">
          <mxGeometry width="50" height="50" relative="1" as="geometry">
            <mxPoint x="530" y="2420" as="sourcePoint" />
            <mxPoint x="580" y="2370" as="targetPoint" />
            <Array as="points">
              <mxPoint x="180" y="2310" />
            </Array>
          </mxGeometry>
        </mxCell>
        <mxCell id="kpOFEtIAuIt60Vqkzhj3-203" value="" style="endArrow=classic;html=1;rounded=0;fontSize=16;entryX=0;entryY=0.5;entryDx=0;entryDy=0;exitX=0.5;exitY=1;exitDx=0;exitDy=0;" edge="1" parent="1" source="kpOFEtIAuIt60Vqkzhj3-190" target="kpOFEtIAuIt60Vqkzhj3-193">
          <mxGeometry width="50" height="50" relative="1" as="geometry">
            <mxPoint x="530" y="2420" as="sourcePoint" />
            <mxPoint x="580" y="2370" as="targetPoint" />
            <Array as="points">
              <mxPoint x="180" y="2390" />
            </Array>
          </mxGeometry>
        </mxCell>
        <mxCell id="kpOFEtIAuIt60Vqkzhj3-204" value="" style="endArrow=classic;html=1;rounded=0;fontSize=16;entryX=0;entryY=0.5;entryDx=0;entryDy=0;exitX=0.5;exitY=1;exitDx=0;exitDy=0;" edge="1" parent="1" source="kpOFEtIAuIt60Vqkzhj3-190" target="kpOFEtIAuIt60Vqkzhj3-194">
          <mxGeometry width="50" height="50" relative="1" as="geometry">
            <mxPoint x="530" y="2420" as="sourcePoint" />
            <mxPoint x="580" y="2370" as="targetPoint" />
            <Array as="points">
              <mxPoint x="180" y="2470" />
            </Array>
          </mxGeometry>
        </mxCell>
        <mxCell id="kpOFEtIAuIt60Vqkzhj3-205" value="" style="endArrow=classic;html=1;rounded=0;fontSize=16;entryX=0;entryY=0.5;entryDx=0;entryDy=0;exitX=0.5;exitY=1;exitDx=0;exitDy=0;" edge="1" parent="1" source="kpOFEtIAuIt60Vqkzhj3-190" target="kpOFEtIAuIt60Vqkzhj3-195">
          <mxGeometry width="50" height="50" relative="1" as="geometry">
            <mxPoint x="530" y="2420" as="sourcePoint" />
            <mxPoint x="580" y="2370" as="targetPoint" />
            <Array as="points">
              <mxPoint x="180" y="2550" />
            </Array>
          </mxGeometry>
        </mxCell>
        <mxCell id="kpOFEtIAuIt60Vqkzhj3-207" value="" style="endArrow=classic;html=1;rounded=0;fontSize=16;entryX=0;entryY=0.5;entryDx=0;entryDy=0;exitX=0.5;exitY=1;exitDx=0;exitDy=0;" edge="1" parent="1" source="kpOFEtIAuIt60Vqkzhj3-190" target="kpOFEtIAuIt60Vqkzhj3-196">
          <mxGeometry width="50" height="50" relative="1" as="geometry">
            <mxPoint x="530" y="2660" as="sourcePoint" />
            <mxPoint x="580" y="2610" as="targetPoint" />
            <Array as="points">
              <mxPoint x="180" y="2630" />
            </Array>
          </mxGeometry>
        </mxCell>
        <mxCell id="kpOFEtIAuIt60Vqkzhj3-208" value="" style="endArrow=classic;html=1;rounded=0;fontSize=16;entryX=0;entryY=0.5;entryDx=0;entryDy=0;exitX=0.5;exitY=1;exitDx=0;exitDy=0;" edge="1" parent="1" source="kpOFEtIAuIt60Vqkzhj3-190" target="kpOFEtIAuIt60Vqkzhj3-197">
          <mxGeometry width="50" height="50" relative="1" as="geometry">
            <mxPoint x="530" y="2570" as="sourcePoint" />
            <mxPoint x="580" y="2520" as="targetPoint" />
            <Array as="points">
              <mxPoint x="180" y="2710" />
            </Array>
          </mxGeometry>
        </mxCell>
        <mxCell id="kpOFEtIAuIt60Vqkzhj3-209" value="" style="endArrow=classic;html=1;rounded=0;fontSize=16;entryX=0;entryY=0.5;entryDx=0;entryDy=0;exitX=0.5;exitY=1;exitDx=0;exitDy=0;" edge="1" parent="1" source="kpOFEtIAuIt60Vqkzhj3-190" target="kpOFEtIAuIt60Vqkzhj3-198">
          <mxGeometry width="50" height="50" relative="1" as="geometry">
            <mxPoint x="530" y="2570" as="sourcePoint" />
            <mxPoint x="580" y="2520" as="targetPoint" />
            <Array as="points">
              <mxPoint x="180" y="2790" />
            </Array>
          </mxGeometry>
        </mxCell>
        <mxCell id="kpOFEtIAuIt60Vqkzhj3-210" value="" style="endArrow=classic;html=1;rounded=0;fontSize=16;entryX=0;entryY=0.5;entryDx=0;entryDy=0;exitX=0.5;exitY=1;exitDx=0;exitDy=0;" edge="1" parent="1" source="kpOFEtIAuIt60Vqkzhj3-190" target="kpOFEtIAuIt60Vqkzhj3-199">
          <mxGeometry width="50" height="50" relative="1" as="geometry">
            <mxPoint x="300" y="2420" as="sourcePoint" />
            <mxPoint x="580" y="2600" as="targetPoint" />
            <Array as="points">
              <mxPoint x="180" y="2870" />
            </Array>
          </mxGeometry>
        </mxCell>
        <mxCell id="kpOFEtIAuIt60Vqkzhj3-211" value="" style="endArrow=classic;html=1;rounded=0;fontSize=16;entryX=0;entryY=0.5;entryDx=0;entryDy=0;exitX=0.5;exitY=1;exitDx=0;exitDy=0;" edge="1" parent="1" source="kpOFEtIAuIt60Vqkzhj3-190" target="kpOFEtIAuIt60Vqkzhj3-200">
          <mxGeometry width="50" height="50" relative="1" as="geometry">
            <mxPoint x="530" y="2750" as="sourcePoint" />
            <mxPoint x="580" y="2700" as="targetPoint" />
            <Array as="points">
              <mxPoint x="180" y="2953" />
            </Array>
          </mxGeometry>
        </mxCell>
        <mxCell id="kpOFEtIAuIt60Vqkzhj3-212" value="" style="endArrow=classic;html=1;rounded=0;fontSize=16;entryX=0;entryY=0.5;entryDx=0;entryDy=0;exitX=0.5;exitY=1;exitDx=0;exitDy=0;" edge="1" parent="1" source="kpOFEtIAuIt60Vqkzhj3-190" target="kpOFEtIAuIt60Vqkzhj3-201">
          <mxGeometry width="50" height="50" relative="1" as="geometry">
            <mxPoint x="530" y="3100" as="sourcePoint" />
            <mxPoint x="580" y="3050" as="targetPoint" />
            <Array as="points">
              <mxPoint x="180" y="3030" />
            </Array>
          </mxGeometry>
        </mxCell>
      </root>
    </mxGraphModel>
  </diagram>
</mxfile>
